<svg width="999.0" height="620"  xmlns="http://www.w3.org/2000/svg"><text x="815" y="506.0" font-size="12">Oxygen</text><text x="815" y="542.0" font-size="12">Hydrogen</text><text x="815" y="338.0" font-size="12">Earth</text><text x="815" y="146.0" font-size="12">Kelvin</text><text x="815" y="362.0" font-size="12">Density</text><text x="815" y="230.0" font-size="12">Electron</text><text x="815" y="314.0" font-size="12">Sun</text><text x="815" y="350.0" font-size="12">Water</text><text x="815" y="386.0" font-size="12">Nitrogen</text><text x="815" y="374.0" font-size="12">Carbon</text><text x="815" y="266.0" font-size="12">Quantum mechanics</text><text x="815" y="254.0" font-size="12">Physics</text><text x="815" y="518.0" font-size="12">Carbon dioxide</text><text x="815" y="398.0" font-size="12">Iron</text><text x="815" y="194.0" font-size="12">Energy</text><text x="815" y="206.0" font-size="12">Temperature</text><text x="815" y="530.0" font-size="12">Chemical element</text><text x="815" y="566.0" font-size="12">Atom</text><text x="815" y="50.0" font-size="12">International System of Units</text><text x="815" y="554.0" font-size="12">Helium</text><text x="815" y="170.0" font-size="12">Mass</text><text x="815" y="578.0" font-size="12">Molecule</text><text x="815" y="218.0" font-size="12">Pressure</text><text x="815" y="302.0" font-size="12">Solar System</text><text x="815" y="590.0" font-size="12">Ion</text><text x="815" y="62.0" font-size="12">Joule</text><text x="815" y="410.0" font-size="12">Copper</text><text x="815" y="26.0" font-size="12">Magnetic field</text><text x="815" y="290.0" font-size="12">Astronomy</text><text x="815" y="122.0" font-size="12">Pascal (unit)</text><text x="815" y="458.0" font-size="12">Sodium</text><text x="815" y="158.0" font-size="12">Metre</text><text x="815" y="134.0" font-size="12">Kilogram</text><text x="815" y="326.0" font-size="12">Star</text><text x="815" y="602.0" font-size="12">Solid</text><text x="815" y="182.0" font-size="12">Gravity</text><text x="815" y="278.0" font-size="12">Photon</text><text x="815" y="74.0" font-size="12">Second</text><text x="815" y="434.0" font-size="12">Magnesium</text><text x="815" y="38.0" font-size="12">Electronvolt</text><text x="815" y="242.0" font-size="12">Proton</text><text x="815" y="470.0" font-size="12">Sulfur</text><text x="815" y="14.0" font-size="12">Astronomical unit</text><text x="815" y="86.0" font-size="12">Newton (unit)</text><text x="815" y="482.0" font-size="12">Chlorine</text><text x="815" y="98.0" font-size="12">Hertz</text><text x="815" y="446.0" font-size="12">Zinc</text><text x="815" y="110.0" font-size="12">Watt</text><text x="815" y="422.0" font-size="12">Gold</text><text x="815" y="494.0" font-size="12">Mercury (element)</text><path stroke-width="2" stroke="blue" d="M 810 118.0 809.340797446489 118.0" /><path stroke-width="2" stroke="blue" d="M 810 130.0 809.340797446489 130.0" /><path stroke-width="2" stroke="blue" d="M 809.340797446489 118.0 809.340797446489 130.0" /><path stroke-width="2" stroke="red" d="M 810 454.0 808.8478660383643 454.0" /><path stroke-width="2" stroke="red" d="M 810 466.0 808.8478660383643 466.0" /><path stroke-width="2" stroke="red" d="M 808.8478660383643 454.0 808.8478660383643 466.0" /><path stroke-width="2" stroke="blue" d="M 810 106.0 808.5279023667969 106.0" /><path stroke-width="2" stroke="blue" d="M 809.340797446489 124.0 808.5279023667969 124.0" /><path stroke-width="2" stroke="blue" d="M 808.5279023667969 106.0 808.5279023667969 124.0" /><path stroke-width="2" stroke="red" d="M 810 478.0 808.3176189496573 478.0" /><path stroke-width="2" stroke="red" d="M 810 490.0 808.3176189496573 490.0" /><path stroke-width="2" stroke="red" d="M 808.3176189496573 478.0 808.3176189496573 490.0" /><path stroke-width="2" stroke="red" d="M 810 430.0 807.9323069652831 430.0" /><path stroke-width="2" stroke="red" d="M 810 442.0 807.9323069652831 442.0" /><path stroke-width="2" stroke="red" d="M 807.9323069652831 430.0 807.9323069652831 442.0" /><path stroke-width="2" stroke="blue" d="M 810 46.0 807.6349125113431 46.0" /><path stroke-width="2" stroke="blue" d="M 810 58.0 807.6349125113431 58.0" /><path stroke-width="2" stroke="blue" d="M 807.6349125113431 46.0 807.6349125113431 58.0" /><path stroke-width="2" stroke="blue" d="M 810 70.0 807.3344277592998 70.0" /><path stroke-width="2" stroke="blue" d="M 810 82.0 807.3344277592998 82.0" /><path stroke-width="2" stroke="blue" d="M 807.3344277592998 70.0 807.3344277592998 82.0" /><path stroke-width="2" stroke="red" d="M 808.8478660383643 460.0 806.628380702152 460.0" /><path stroke-width="2" stroke="red" d="M 808.3176189496573 484.0 806.628380702152 484.0" /><path stroke-width="2" stroke="red" d="M 806.628380702152 460.0 806.628380702152 484.0" /><path stroke-width="2" stroke="blue" d="M 810 94.0 806.5296177789401 94.0" /><path stroke-width="2" stroke="blue" d="M 808.5279023667969 115.0 806.5296177789401 115.0" /><path stroke-width="2" stroke="blue" d="M 806.5296177789401 94.0 806.5296177789401 115.0" /><path stroke-width="2" stroke="blue" d="M 810 142.0 806.0611868962799 142.0" /><path stroke-width="2" stroke="blue" d="M 810 154.0 806.0611868962799 154.0" /><path stroke-width="2" stroke="blue" d="M 806.0611868962799 142.0 806.0611868962799 154.0" /><path stroke-width="2" stroke="red" d="M 810 406.0 805.7413978049242 406.0" /><path stroke-width="2" stroke="red" d="M 810 418.0 805.7413978049242 418.0" /><path stroke-width="2" stroke="red" d="M 805.7413978049242 406.0 805.7413978049242 418.0" /><path stroke-width="2" stroke="red" d="M 810 382.0 805.6416523933683 382.0" /><path stroke-width="2" stroke="red" d="M 810 394.0 805.6416523933683 394.0" /><path stroke-width="2" stroke="red" d="M 805.6416523933683 382.0 805.6416523933683 394.0" /><path stroke-width="2" stroke="red" d="M 807.9323069652831 436.0 805.5796644733138 436.0" /><path stroke-width="2" stroke="red" d="M 806.628380702152 472.0 805.5796644733138 472.0" /><path stroke-width="2" stroke="red" d="M 805.5796644733138 436.0 805.5796644733138 472.0" /><path stroke-width="2" stroke="red" d="M 810 538.0 805.2067713209825 538.0" /><path stroke-width="2" stroke="red" d="M 810 550.0 805.2067713209825 550.0" /><path stroke-width="2" stroke="red" d="M 805.2067713209825 538.0 805.2067713209825 550.0" /><path stroke-width="2" stroke="green" d="M 810 310.0 805.1615672214829 310.0" /><path stroke-width="2" stroke="green" d="M 810 322.0 805.1615672214829 322.0" /><path stroke-width="2" stroke="green" d="M 805.1615672214829 310.0 805.1615672214829 322.0" /><path stroke-width="2" stroke="red" d="M 810 502.0 804.1919834166413 502.0" /><path stroke-width="2" stroke="red" d="M 810 514.0 804.1919834166413 514.0" /><path stroke-width="2" stroke="red" d="M 804.1919834166413 502.0 804.1919834166413 514.0" /><path stroke-width="2" stroke="red" d="M 810 370.0 803.8557748418127 370.0" /><path stroke-width="2" stroke="red" d="M 805.6416523933683 388.0 803.8557748418127 388.0" /><path stroke-width="2" stroke="red" d="M 803.8557748418127 370.0 803.8557748418127 388.0" /><path stroke-width="2" stroke="green" d="M 810 298.0 803.6348417341417 298.0" /><path stroke-width="2" stroke="green" d="M 805.1615672214829 316.0 803.6348417341417 316.0" /><path stroke-width="2" stroke="green" d="M 803.6348417341417 298.0 803.6348417341417 316.0" /><path stroke-width="2" stroke="blue" d="M 810 262.0 802.9902523648235 262.0" /><path stroke-width="2" stroke="blue" d="M 810 274.0 802.9902523648235 274.0" /><path stroke-width="2" stroke="blue" d="M 802.9902523648235 262.0 802.9902523648235 274.0" /><path stroke-width="2" stroke="blue" d="M 807.6349125113431 52.0 802.7014503674264 52.0" /><path stroke-width="2" stroke="blue" d="M 807.3344277592998 76.0 802.7014503674264 76.0" /><path stroke-width="2" stroke="blue" d="M 802.7014503674264 52.0 802.7014503674264 76.0" /><path stroke-width="2" stroke="blue" d="M 806.5296177789401 104.5 800.7411852457781 104.5" /><path stroke-width="2" stroke="blue" d="M 806.0611868962799 148.0 800.7411852457781 148.0" /><path stroke-width="2" stroke="blue" d="M 800.7411852457781 104.5 800.7411852457781 148.0" /><path stroke-width="2" stroke="green" d="M 810 286.0 799.6398653384284 286.0" /><path stroke-width="2" stroke="green" d="M 803.6348417341417 307.0 799.6398653384284 307.0" /><path stroke-width="2" stroke="green" d="M 799.6398653384284 286.0 799.6398653384284 307.0" /><path stroke-width="2" stroke="red" d="M 805.7413978049242 412.0 797.9117217831903 412.0" /><path stroke-width="2" stroke="red" d="M 805.5796644733138 454.0 797.9117217831903 454.0" /><path stroke-width="2" stroke="red" d="M 797.9117217831903 412.0 797.9117217831903 454.0" /><path stroke-width="2" stroke="blue" d="M 810 22.0 796.899635294857 22.0" /><path stroke-width="2" stroke="blue" d="M 810 34.0 796.899635294857 34.0" /><path stroke-width="2" stroke="blue" d="M 796.899635294857 22.0 796.899635294857 34.0" /><path stroke-width="2" stroke="orange" d="M 810 562.0 795.5556606738401 562.0" /><path stroke-width="2" stroke="orange" d="M 810 574.0 795.5556606738401 574.0" /><path stroke-width="2" stroke="orange" d="M 795.5556606738401 562.0 795.5556606738401 574.0" /><path stroke-width="2" stroke="blue" d="M 802.7014503674264 64.0 795.075153320822 64.0" /><path stroke-width="2" stroke="blue" d="M 800.7411852457781 126.25 795.075153320822 126.25" /><path stroke-width="2" stroke="blue" d="M 795.075153320822 64.0 795.075153320822 126.25" /><path stroke-width="2" stroke="red" d="M 803.8557748418127 379.0 794.6205005831513 379.0" /><path stroke-width="2" stroke="red" d="M 797.9117217831903 433.0 794.6205005831513 433.0" /><path stroke-width="2" stroke="red" d="M 794.6205005831513 379.0 794.6205005831513 433.0" /><path stroke-width="2" stroke="blue" d="M 810 202.0 793.5155270959804 202.0" /><path stroke-width="2" stroke="blue" d="M 810 214.0 793.5155270959804 214.0" /><path stroke-width="2" stroke="blue" d="M 793.5155270959804 202.0 793.5155270959804 214.0" /><path stroke-width="2" stroke="blue" d="M 810 226.0 792.0399238801605 226.0" /><path stroke-width="2" stroke="blue" d="M 810 238.0 792.0399238801605 238.0" /><path stroke-width="2" stroke="blue" d="M 792.0399238801605 226.0 792.0399238801605 238.0" /><path stroke-width="2" stroke="blue" d="M 810 250.0 786.9922617849792 250.0" /><path stroke-width="2" stroke="blue" d="M 802.9902523648235 268.0 786.9922617849792 268.0" /><path stroke-width="2" stroke="blue" d="M 786.9922617849792 250.0 786.9922617849792 268.0" /><path stroke-width="2" stroke="red" d="M 810 526.0 786.8310703675761 526.0" /><path stroke-width="2" stroke="red" d="M 805.2067713209825 544.0 786.8310703675761 544.0" /><path stroke-width="2" stroke="red" d="M 786.8310703675761 526.0 786.8310703675761 544.0" /><path stroke-width="2" stroke="blue" d="M 796.899635294857 28.0 779.5259395402595 28.0" /><path stroke-width="2" stroke="blue" d="M 795.075153320822 95.125 779.5259395402595 95.125" /><path stroke-width="2" stroke="blue" d="M 779.5259395402595 28.0 779.5259395402595 95.125" /><path stroke-width="2" stroke="red" d="M 804.1919834166413 508.0 774.9609731422352 508.0" /><path stroke-width="2" stroke="red" d="M 786.8310703675761 535.0 774.9609731422352 535.0" /><path stroke-width="2" stroke="red" d="M 774.9609731422352 508.0 774.9609731422352 535.0" /><path stroke-width="2" stroke="blue" d="M 810 190.0 773.900813313697 190.0" /><path stroke-width="2" stroke="blue" d="M 793.5155270959804 208.0 773.900813313697 208.0" /><path stroke-width="2" stroke="blue" d="M 773.900813313697 190.0 773.900813313697 208.0" /><path stroke-width="2" stroke="blue" d="M 792.0399238801605 232.0 765.7444295419864 232.0" /><path stroke-width="2" stroke="blue" d="M 786.9922617849792 259.0 765.7444295419864 259.0" /><path stroke-width="2" stroke="blue" d="M 765.7444295419864 232.0 765.7444295419864 259.0" /><path stroke-width="2" stroke="blue" d="M 810 166.0 758.7249468560099 166.0" /><path stroke-width="2" stroke="blue" d="M 810 178.0 758.7249468560099 178.0" /><path stroke-width="2" stroke="blue" d="M 758.7249468560099 166.0 758.7249468560099 178.0" /><path stroke-width="2" stroke="red" d="M 794.6205005831513 406.0 755.0885017645172 406.0" /><path stroke-width="2" stroke="red" d="M 774.9609731422352 521.5 755.0885017645172 521.5" /><path stroke-width="2" stroke="red" d="M 755.0885017645172 406.0 755.0885017645172 521.5" /><path stroke-width="2" stroke="red" d="M 810 358.0 740.6463447978192 358.0" /><path stroke-width="2" stroke="red" d="M 755.0885017645172 463.75 740.6463447978192 463.75" /><path stroke-width="2" stroke="red" d="M 740.6463447978192 358.0 740.6463447978192 463.75" /><path stroke-width="2" stroke="blue" d="M 810 10.0 736.5957794204126 10.0" /><path stroke-width="2" stroke="blue" d="M 779.5259395402595 61.5625 736.5957794204126 61.5625" /><path stroke-width="2" stroke="blue" d="M 736.5957794204126 10.0 736.5957794204126 61.5625" /><path stroke-width="2" stroke="orange" d="M 810 586.0 728.0713831589121 586.0" /><path stroke-width="2" stroke="orange" d="M 810 598.0 728.0713831589121 598.0" /><path stroke-width="2" stroke="orange" d="M 728.0713831589121 586.0 728.0713831589121 598.0" /><path stroke-width="2" stroke="green" d="M 810 334.0 720.1228284639303 334.0" /><path stroke-width="2" stroke="green" d="M 810 346.0 720.1228284639303 346.0" /><path stroke-width="2" stroke="green" d="M 720.1228284639303 334.0 720.1228284639303 346.0" /><path stroke-width="2" stroke="orange" d="M 795.5556606738401 568.0 707.5450724255816 568.0" /><path stroke-width="2" stroke="orange" d="M 728.0713831589121 592.0 707.5450724255816 592.0" /><path stroke-width="2" stroke="orange" d="M 707.5450724255816 568.0 707.5450724255816 592.0" /><path stroke-width="2" stroke="blue" d="M 773.900813313697 199.0 692.3082081535475 199.0" /><path stroke-width="2" stroke="blue" d="M 765.7444295419864 245.5 692.3082081535475 245.5" /><path stroke-width="2" stroke="blue" d="M 692.3082081535475 199.0 692.3082081535475 245.5" /><path stroke-width="2" stroke="blue" d="M 758.7249468560099 172.0 675.1435804251516 172.0" /><path stroke-width="2" stroke="blue" d="M 692.3082081535475 222.25 675.1435804251516 222.25" /><path stroke-width="2" stroke="blue" d="M 675.1435804251516 172.0 675.1435804251516 222.25" /><path stroke-width="2" stroke="blue" d="M 736.5957794204126 35.78125 569.9422589090028 35.78125" /><path stroke-width="2" stroke="blue" d="M 675.1435804251516 197.125 569.9422589090028 197.125" /><path stroke-width="2" stroke="blue" d="M 569.9422589090028 35.78125 569.9422589090028 197.125" /><path stroke-width="2" stroke="green" d="M 799.6398653384284 296.5 488.8571805414011 296.5" /><path stroke-width="2" stroke="green" d="M 720.1228284639303 340.0 488.8571805414011 340.0" /><path stroke-width="2" stroke="green" d="M 488.8571805414011 296.5 488.8571805414011 340.0" /><path stroke-width="2" stroke="black" d="M 740.6463447978192 410.875 417.8024855817822 410.875" /><path stroke-width="2" stroke="black" d="M 707.5450724255816 580.0 417.8024855817822 580.0" /><path stroke-width="2" stroke="black" d="M 417.8024855817822 410.875 417.8024855817822 580.0" /><path stroke-width="2" stroke="black" d="M 488.8571805414011 318.25 133.1696716611391 318.25" /><path stroke-width="2" stroke="black" d="M 417.8024855817822 495.4375 133.1696716611391 495.4375" /><path stroke-width="2" stroke="black" d="M 133.1696716611391 318.25 133.1696716611391 495.4375" /><path stroke-width="2" stroke="black" d="M 569.9422589090028 116.453125 10.000000000000114 116.453125" /><path stroke-width="2" stroke="black" d="M 133.1696716611391 406.84375 10.000000000000114 406.84375" /><path stroke-width="2" stroke="black" d="M 10.000000000000114 116.453125 10.000000000000114 406.84375" /></svg>