<?xml version="1.0" encoding="utf-8"?>
<svg height="1220" width="1913.0" xmlns="http://www.w3.org/2000/svg"><rect fill="white" height="100%" width="100%" x="0" y="0"/><text font-size="12" x="1615" y="86.0">Oxygen (Mathematics)</text><text font-size="12" x="1615" y="26.0">Hydrogen (Mathematics)</text><text font-size="12" x="1615" y="1070.0">Earth (Everyday life)</text><text font-size="12" x="1615" y="950.0">Kelvin (People)</text><text font-size="12" x="1615" y="362.0">Density (History)</text><text font-size="12" x="1615" y="638.0">Electron (History)</text><text font-size="12" x="1615" y="1190.0">Sun (History)</text><text font-size="12" x="1615" y="1082.0">Water (History)</text><text font-size="12" x="1615" y="122.0">Nitrogen (History)</text><text font-size="12" x="1615" y="110.0">Carbon (History)</text><text font-size="12" x="1615" y="602.0">Quantum mechanics (History)</text><text font-size="12" x="1615" y="650.0">Physics (History)</text><text font-size="12" x="1615" y="98.0">Carbon dioxide (Arts)</text><text font-size="12" x="1615" y="134.0">Iron (History)</text><text font-size="12" x="1615" y="686.0">Energy (Arts)</text><text font-size="12" x="1615" y="662.0">Temperature (Physical sciences)</text><text font-size="12" x="1615" y="14.0">Chemical element (Arts)</text><text font-size="12" x="1615" y="518.0">Atom (Arts)</text><text font-size="12" x="1615" y="806.0">International System of Units (Arts)</text><text font-size="12" x="1615" y="38.0">Helium (Arts)</text><text font-size="12" x="1615" y="578.0">Mass (Arts)</text><text font-size="12" x="1615" y="530.0">Molecule (Arts)</text><text font-size="12" x="1615" y="674.0">Pressure (Philosophy and religion)</text><text font-size="12" x="1615" y="1178.0">Solar System (People)</text><text font-size="12" x="1615" y="434.0">Ion (People)</text><text font-size="12" x="1615" y="818.0">Joule (People)</text><text font-size="12" x="1615" y="158.0">Copper (People)</text><text font-size="12" x="1615" y="734.0">Magnetic field (Geography)</text><text font-size="12" x="1615" y="1166.0">Astronomy (Society and social sciences)</text><text font-size="12" x="1615" y="890.0">Pascal (unit) (Society and social sciences)</text><text font-size="12" x="1615" y="206.0">Sodium (Biological and health sciences)</text><text font-size="12" x="1615" y="962.0">Metre (People)</text><text font-size="12" x="1615" y="902.0">Kilogram (Technology)</text><text font-size="12" x="1615" y="1202.0">Star (People)</text><text font-size="12" x="1615" y="398.0">Solid (People)</text><text font-size="12" x="1615" y="542.0">Gravity (History)</text><text font-size="12" x="1615" y="614.0">Photon (People)</text><text font-size="12" x="1615" y="986.0">Second (People)</text><text font-size="12" x="1615" y="182.0">Magnesium (People)</text><text font-size="12" x="1615" y="794.0">Electronvolt (Biological and health sciences)</text><text font-size="12" x="1615" y="482.0">Proton (People)</text><text font-size="12" x="1615" y="266.0">Sulfur (People)</text><text font-size="12" x="1615" y="770.0">Astronomical unit (People)</text><text font-size="12" x="1615" y="998.0">Newton (unit) (Mathematics)</text><text font-size="12" x="1615" y="230.0">Chlorine (Geography)</text><text font-size="12" x="1615" y="914.0">Hertz (Biological and health sciences)</text><text font-size="12" x="1615" y="194.0">Zinc (Geography)</text><text font-size="12" x="1615" y="926.0">Watt (History)</text><text font-size="12" x="1615" y="146.0">Gold (Society and social sciences)</text><text font-size="12" x="1615" y="314.0">Mercury (element) (Society and social sciences)</text><text font-size="12" x="1615" y="470.0">Radioactive decay (Philosophy and religion)</text><text font-size="12" x="1615" y="446.0">Chemistry (People)</text><text font-size="12" x="1615" y="878.0">Celsius (People)</text><text font-size="12" x="1615" y="290.0">Silicon (Technology)</text><text font-size="12" x="1615" y="1058.0">Gloss (optics) (Philosophy and religion)</text><text font-size="12" x="1615" y="1010.0">Speed of light (Society and social sciences)</text><text font-size="12" x="1615" y="830.0">Mole (unit) (Physical sciences)</text><text font-size="12" x="1615" y="374.0">Ammonia (Physical sciences)</text><text font-size="12" x="1615" y="50.0">Isotope (Mathematics)</text><text font-size="12" x="1615" y="710.0">Electromagnetic radiation (Arts)</text><text font-size="12" x="1615" y="494.0">Atomic nucleus (Arts)</text><text font-size="12" x="1615" y="326.0">Nickel (Mathematics)</text><text font-size="12" x="1615" y="1094.0">Universe (Philosophy and religion)</text><text font-size="12" x="1615" y="1106.0">Moon (People)</text><text font-size="12" x="1615" y="1130.0">Interstellar medium (Geography)</text><text font-size="12" x="1615" y="278.0">Potassium (People)</text><text font-size="12" x="1615" y="746.0">Electric charge (People)</text><text font-size="12" x="1615" y="722.0">Magnetism (People)</text><text font-size="12" x="1615" y="242.0">Calcium (Geography)</text><text font-size="12" x="1615" y="1142.0">Milky Way (Physical sciences)</text><text font-size="12" x="1615" y="758.0">Electromagnetism (Arts)</text><text font-size="12" x="1615" y="62.0">Uranium (Society and social sciences)</text><text font-size="12" x="1615" y="506.0">Gas (Arts)</text><text font-size="12" x="1615" y="338.0">Lead (Biological and health sciences)</text><text font-size="12" x="1615" y="1034.0">Infrared (Geography)</text><text font-size="12" x="1615" y="386.0">Ultraviolet (Biological and health sciences)</text><text font-size="12" x="1615" y="938.0">Volt (Physical sciences)</text><text font-size="12" x="1615" y="566.0">Special relativity (Society and social sciences)</text><text font-size="12" x="1615" y="410.0">Phase (matter) (Biological and health sciences)</text><text font-size="12" x="1615" y="74.0">Periodic table (Arts)</text><text font-size="12" x="1615" y="1022.0">Plasma (physics) (Society and social sciences)</text><text font-size="12" x="1615" y="974.0">Degree (angle) (Geography)</text><text font-size="12" x="1615" y="218.0">Phosphorus (Physical sciences)</text><text font-size="12" x="1615" y="854.0">Ampere (Geography)</text><text font-size="12" x="1615" y="422.0">Spectroscopy (Physical sciences)</text><text font-size="12" x="1615" y="1154.0">Galaxy (Physical sciences)</text><text font-size="12" x="1615" y="458.0">X-ray (History)</text><text font-size="12" x="1615" y="350.0">Lithium (Philosophy and religion)</text><text font-size="12" x="1615" y="254.0">Manganese (Physical sciences)</text><text font-size="12" x="1615" y="590.0">Force (Physical sciences)</text><text font-size="12" x="1615" y="866.0">Coulomb (Physical sciences)</text><text font-size="12" x="1615" y="842.0">Tesla (unit) (Biological and health sciences)</text><text font-size="12" x="1615" y="782.0">Radian (Geography)</text><text font-size="12" x="1615" y="170.0">Silver (Physical sciences)</text><text font-size="12" x="1615" y="1118.0">Planet (Physical sciences)</text><text font-size="12" x="1615" y="302.0">Platinum (Arts)</text><text font-size="12" x="1615" y="554.0">General relativity (Arts)</text><text font-size="12" x="1615" y="626.0">Particle physics (Arts)</text><text font-size="12" x="1615" y="698.0">Thermodynamics (Physical sciences)</text><text font-size="12" x="1615" y="1046.0">Wavelength (Physical sciences)</text><path d="M 1610 850.0 1609.7714689013062 850.0" stroke="blue" stroke-width="2"/><path d="M 1610 862.0 1609.7714689013062 862.0" stroke="blue" stroke-width="2"/><path d="M 1609.7714689013062 850.0 1609.7714689013062 862.0" stroke="blue" stroke-width="2"/><path d="M 1610 202.0 1608.8537385159802 202.0" stroke="red" stroke-width="2"/><path d="M 1610 214.0 1608.8537385159802 214.0" stroke="red" stroke-width="2"/><path d="M 1608.8537385159802 202.0 1608.8537385159802 214.0" stroke="red" stroke-width="2"/><path d="M 1610 886.0 1608.7108661348816 886.0" stroke="blue" stroke-width="2"/><path d="M 1610 898.0 1608.7108661348816 898.0" stroke="blue" stroke-width="2"/><path d="M 1608.7108661348816 886.0 1608.7108661348816 898.0" stroke="blue" stroke-width="2"/><path d="M 1610 874.0 1608.3692692867123 874.0" stroke="blue" stroke-width="2"/><path d="M 1608.7108661348816 892.0 1608.3692692867123 892.0" stroke="blue" stroke-width="2"/><path d="M 1608.3692692867123 874.0 1608.3692692867123 892.0" stroke="blue" stroke-width="2"/><path d="M 1610 922.0 1608.2677426550836 922.0" stroke="blue" stroke-width="2"/><path d="M 1610 934.0 1608.2677426550836 934.0" stroke="blue" stroke-width="2"/><path d="M 1608.2677426550836 922.0 1608.2677426550836 934.0" stroke="blue" stroke-width="2"/><path d="M 1610 238.0 1608.206818326469 238.0" stroke="red" stroke-width="2"/><path d="M 1610 250.0 1608.206818326469 250.0" stroke="red" stroke-width="2"/><path d="M 1608.206818326469 238.0 1608.206818326469 250.0" stroke="red" stroke-width="2"/><path d="M 1609.7714689013062 856.0 1608.0120529280325 856.0" stroke="blue" stroke-width="2"/><path d="M 1608.3692692867123 883.0 1608.0120529280325 883.0" stroke="blue" stroke-width="2"/><path d="M 1608.0120529280325 856.0 1608.0120529280325 883.0" stroke="blue" stroke-width="2"/><path d="M 1610 310.0 1607.66269702719 310.0" stroke="red" stroke-width="2"/><path d="M 1610 322.0 1607.66269702719 322.0" stroke="red" stroke-width="2"/><path d="M 1607.66269702719 310.0 1607.66269702719 322.0" stroke="red" stroke-width="2"/><path d="M 1610 226.0 1607.3426144268713 226.0" stroke="red" stroke-width="2"/><path d="M 1608.206818326469 244.0 1607.3426144268713 244.0" stroke="red" stroke-width="2"/><path d="M 1607.3426144268713 226.0 1607.3426144268713 244.0" stroke="red" stroke-width="2"/><path d="M 1610 838.0 1607.1453367559388 838.0" stroke="blue" stroke-width="2"/><path d="M 1608.0120529280325 869.5 1607.1453367559388 869.5" stroke="blue" stroke-width="2"/><path d="M 1607.1453367559388 838.0 1607.1453367559388 869.5" stroke="blue" stroke-width="2"/><path d="M 1610 1138.0 1606.8846453059164 1138.0" stroke="green" stroke-width="2"/><path d="M 1610 1150.0 1606.8846453059164 1150.0" stroke="green" stroke-width="2"/><path d="M 1606.8846453059164 1138.0 1606.8846453059164 1150.0" stroke="green" stroke-width="2"/><path d="M 1608.8537385159802 208.0 1606.4254438419212 208.0" stroke="red" stroke-width="2"/><path d="M 1607.3426144268713 235.0 1606.4254438419212 235.0" stroke="red" stroke-width="2"/><path d="M 1606.4254438419212 208.0 1606.4254438419212 235.0" stroke="red" stroke-width="2"/><path d="M 1610 742.0 1606.0451770357606 742.0" stroke="blue" stroke-width="2"/><path d="M 1610 754.0 1606.0451770357606 754.0" stroke="blue" stroke-width="2"/><path d="M 1606.0451770357606 742.0 1606.0451770357606 754.0" stroke="blue" stroke-width="2"/><path d="M 1610 178.0 1605.9564278088337 178.0" stroke="red" stroke-width="2"/><path d="M 1610 190.0 1605.9564278088337 190.0" stroke="red" stroke-width="2"/><path d="M 1605.9564278088337 178.0 1605.9564278088337 190.0" stroke="red" stroke-width="2"/><path d="M 1610 910.0 1605.6760495205137 910.0" stroke="blue" stroke-width="2"/><path d="M 1608.2677426550836 928.0 1605.6760495205137 928.0" stroke="blue" stroke-width="2"/><path d="M 1605.6760495205137 910.0 1605.6760495205137 928.0" stroke="blue" stroke-width="2"/><path d="M 1610 262.0 1605.4733198889082 262.0" stroke="red" stroke-width="2"/><path d="M 1610 274.0 1605.4733198889082 274.0" stroke="red" stroke-width="2"/><path d="M 1605.4733198889082 262.0 1605.4733198889082 274.0" stroke="red" stroke-width="2"/><path d="M 1610 802.0 1605.374844409573 802.0" stroke="blue" stroke-width="2"/><path d="M 1610 814.0 1605.374844409573 814.0" stroke="blue" stroke-width="2"/><path d="M 1605.374844409573 802.0 1605.374844409573 814.0" stroke="blue" stroke-width="2"/><path d="M 1610 298.0 1605.3427446837159 298.0" stroke="red" stroke-width="2"/><path d="M 1607.66269702719 316.0 1605.3427446837159 316.0" stroke="red" stroke-width="2"/><path d="M 1605.3427446837159 298.0 1605.3427446837159 316.0" stroke="red" stroke-width="2"/><path d="M 1610 154.0 1605.3289732147307 154.0" stroke="red" stroke-width="2"/><path d="M 1610 166.0 1605.3289732147307 166.0" stroke="red" stroke-width="2"/><path d="M 1605.3289732147307 154.0 1605.3289732147307 166.0" stroke="red" stroke-width="2"/><path d="M 1610 982.0 1604.787217635757 982.0" stroke="blue" stroke-width="2"/><path d="M 1610 994.0 1604.787217635757 994.0" stroke="blue" stroke-width="2"/><path d="M 1604.787217635757 982.0 1604.787217635757 994.0" stroke="blue" stroke-width="2"/><path d="M 1610 610.0 1604.1467793084628 610.0" stroke="blue" stroke-width="2"/><path d="M 1610 622.0 1604.1467793084628 622.0" stroke="blue" stroke-width="2"/><path d="M 1604.1467793084628 610.0 1604.1467793084628 622.0" stroke="blue" stroke-width="2"/><path d="M 1610 34.0 1604.0182712457374 34.0" stroke="red" stroke-width="2"/><path d="M 1610 46.0 1604.0182712457374 46.0" stroke="red" stroke-width="2"/><path d="M 1604.0182712457374 34.0 1604.0182712457374 46.0" stroke="red" stroke-width="2"/><path d="M 1607.1453367559388 853.75 1602.863940113737 853.75" stroke="blue" stroke-width="2"/><path d="M 1605.6760495205137 919.0 1602.863940113737 919.0" stroke="blue" stroke-width="2"/><path d="M 1602.863940113737 853.75 1602.863940113737 919.0" stroke="blue" stroke-width="2"/><path d="M 1606.4254438419212 221.5 1602.5738458972842 221.5" stroke="red" stroke-width="2"/><path d="M 1605.4733198889082 268.0 1602.5738458972842 268.0" stroke="red" stroke-width="2"/><path d="M 1602.5738458972842 221.5 1602.5738458972842 268.0" stroke="red" stroke-width="2"/><path d="M 1610 334.0 1602.5016287889873 334.0" stroke="red" stroke-width="2"/><path d="M 1610 346.0 1602.5016287889873 346.0" stroke="red" stroke-width="2"/><path d="M 1602.5016287889873 334.0 1602.5016287889873 346.0" stroke="red" stroke-width="2"/><path d="M 1610 730.0 1602.4022813768086 730.0" stroke="blue" stroke-width="2"/><path d="M 1606.0451770357606 748.0 1602.4022813768086 748.0" stroke="blue" stroke-width="2"/><path d="M 1602.4022813768086 730.0 1602.4022813768086 748.0" stroke="blue" stroke-width="2"/><path d="M 1610 58.0 1602.389641189497 58.0" stroke="red" stroke-width="2"/><path d="M 1610 70.0 1602.389641189497 70.0" stroke="red" stroke-width="2"/><path d="M 1602.389641189497 58.0 1602.389641189497 70.0" stroke="red" stroke-width="2"/><path d="M 1610 946.0 1602.297272919631 946.0" stroke="blue" stroke-width="2"/><path d="M 1610 958.0 1602.297272919631 958.0" stroke="blue" stroke-width="2"/><path d="M 1602.297272919631 946.0 1602.297272919631 958.0" stroke="blue" stroke-width="2"/><path d="M 1610 142.0 1601.6718946574165 142.0" stroke="red" stroke-width="2"/><path d="M 1605.3289732147307 160.0 1601.6718946574165 160.0" stroke="red" stroke-width="2"/><path d="M 1601.6718946574165 142.0 1601.6718946574165 160.0" stroke="red" stroke-width="2"/><path d="M 1610 118.0 1601.4768329313326 118.0" stroke="red" stroke-width="2"/><path d="M 1610 130.0 1601.4768329313326 130.0" stroke="red" stroke-width="2"/><path d="M 1601.4768329313326 118.0 1601.4768329313326 130.0" stroke="red" stroke-width="2"/><path d="M 1610 574.0 1601.4671447048734 574.0" stroke="blue" stroke-width="2"/><path d="M 1610 586.0 1601.4671447048734 586.0" stroke="blue" stroke-width="2"/><path d="M 1601.4671447048734 574.0 1601.4671447048734 586.0" stroke="blue" stroke-width="2"/><path d="M 1605.9564278088337 184.0 1600.7004844011499 184.0" stroke="red" stroke-width="2"/><path d="M 1602.5738458972842 244.75 1600.7004844011499 244.75" stroke="red" stroke-width="2"/><path d="M 1600.7004844011499 184.0 1600.7004844011499 244.75" stroke="red" stroke-width="2"/><path d="M 1610 1186.0 1600.5379802980676 1186.0" stroke="green" stroke-width="2"/><path d="M 1610 1198.0 1600.5379802980676 1198.0" stroke="green" stroke-width="2"/><path d="M 1600.5379802980676 1186.0 1600.5379802980676 1198.0" stroke="green" stroke-width="2"/><path d="M 1605.3427446837159 307.0 1600.3555608294066 307.0" stroke="red" stroke-width="2"/><path d="M 1602.5016287889873 340.0 1600.3555608294066 340.0" stroke="red" stroke-width="2"/><path d="M 1600.3555608294066 307.0 1600.3555608294066 340.0" stroke="red" stroke-width="2"/><path d="M 1610 970.0 1600.1242710167746 970.0" stroke="blue" stroke-width="2"/><path d="M 1604.787217635757 988.0 1600.1242710167746 988.0" stroke="blue" stroke-width="2"/><path d="M 1600.1242710167746 970.0 1600.1242710167746 988.0" stroke="blue" stroke-width="2"/><path d="M 1610 82.0 1598.6418661048895 82.0" stroke="red" stroke-width="2"/><path d="M 1610 94.0 1598.6418661048895 94.0" stroke="red" stroke-width="2"/><path d="M 1598.6418661048895 82.0 1598.6418661048895 94.0" stroke="red" stroke-width="2"/><path d="M 1604.0182712457374 40.0 1598.4198541612282 40.0" stroke="red" stroke-width="2"/><path d="M 1602.389641189497 64.0 1598.4198541612282 64.0" stroke="red" stroke-width="2"/><path d="M 1598.4198541612282 40.0 1598.4198541612282 64.0" stroke="red" stroke-width="2"/><path d="M 1610 106.0 1597.9843779667651 106.0" stroke="red" stroke-width="2"/><path d="M 1601.4768329313326 124.0 1597.9843779667651 124.0" stroke="red" stroke-width="2"/><path d="M 1597.9843779667651 106.0 1597.9843779667651 124.0" stroke="red" stroke-width="2"/><path d="M 1610 286.0 1597.655461337563 286.0" stroke="red" stroke-width="2"/><path d="M 1600.3555608294066 323.5 1597.655461337563 323.5" stroke="red" stroke-width="2"/><path d="M 1597.655461337563 286.0 1597.655461337563 323.5" stroke="red" stroke-width="2"/><path d="M 1610 1174.0 1597.5523220690632 1174.0" stroke="green" stroke-width="2"/><path d="M 1600.5379802980676 1192.0 1597.5523220690632 1192.0" stroke="green" stroke-width="2"/><path d="M 1597.5523220690632 1174.0 1597.5523220690632 1192.0" stroke="green" stroke-width="2"/><path d="M 1610 478.0 1596.5942681777053 478.0" stroke="blue" stroke-width="2"/><path d="M 1610 490.0 1596.5942681777053 490.0" stroke="blue" stroke-width="2"/><path d="M 1596.5942681777053 478.0 1596.5942681777053 490.0" stroke="blue" stroke-width="2"/><path d="M 1610 538.0 1593.9289602770225 538.0" stroke="blue" stroke-width="2"/><path d="M 1610 550.0 1593.9289602770225 550.0" stroke="blue" stroke-width="2"/><path d="M 1593.9289602770225 538.0 1593.9289602770225 550.0" stroke="blue" stroke-width="2"/><path d="M 1600.7004844011499 214.375 1592.8470728080215 214.375" stroke="red" stroke-width="2"/><path d="M 1597.655461337563 304.75 1592.8470728080215 304.75" stroke="red" stroke-width="2"/><path d="M 1592.8470728080215 214.375 1592.8470728080215 304.75" stroke="red" stroke-width="2"/><path d="M 1610 826.0 1592.7897458384643 826.0" stroke="blue" stroke-width="2"/><path d="M 1602.863940113737 886.375 1592.7897458384643 886.375" stroke="blue" stroke-width="2"/><path d="M 1592.7897458384643 826.0 1592.7897458384643 886.375" stroke="blue" stroke-width="2"/><path d="M 1610 22.0 1590.5104423869077 22.0" stroke="red" stroke-width="2"/><path d="M 1598.4198541612282 52.0 1590.5104423869077 52.0" stroke="red" stroke-width="2"/><path d="M 1590.5104423869077 22.0 1590.5104423869077 52.0" stroke="red" stroke-width="2"/><path d="M 1610 790.0 1589.875153945096 790.0" stroke="blue" stroke-width="2"/><path d="M 1605.374844409573 808.0 1589.875153945096 808.0" stroke="blue" stroke-width="2"/><path d="M 1589.875153945096 790.0 1589.875153945096 808.0" stroke="blue" stroke-width="2"/><path d="M 1610 1162.0 1589.739762280524 1162.0" stroke="green" stroke-width="2"/><path d="M 1597.5523220690632 1183.0 1589.739762280524 1183.0" stroke="green" stroke-width="2"/><path d="M 1589.739762280524 1162.0 1589.739762280524 1183.0" stroke="green" stroke-width="2"/><path d="M 1610 718.0 1587.9044710902333 718.0" stroke="blue" stroke-width="2"/><path d="M 1602.4022813768086 739.0 1587.9044710902333 739.0" stroke="blue" stroke-width="2"/><path d="M 1587.9044710902333 718.0 1587.9044710902333 739.0" stroke="blue" stroke-width="2"/><path d="M 1602.297272919631 952.0 1587.2659134725056 952.0" stroke="blue" stroke-width="2"/><path d="M 1600.1242710167746 979.0 1587.2659134725056 979.0" stroke="blue" stroke-width="2"/><path d="M 1587.2659134725056 952.0 1587.2659134725056 979.0" stroke="blue" stroke-width="2"/><path d="M 1610 598.0 1586.9310795822805 598.0" stroke="blue" stroke-width="2"/><path d="M 1604.1467793084628 616.0 1586.9310795822805 616.0" stroke="blue" stroke-width="2"/><path d="M 1586.9310795822805 598.0 1586.9310795822805 616.0" stroke="blue" stroke-width="2"/><path d="M 1601.6718946574165 151.0 1586.360211687193 151.0" stroke="red" stroke-width="2"/><path d="M 1592.8470728080215 259.5625 1586.360211687193 259.5625" stroke="red" stroke-width="2"/><path d="M 1586.360211687193 151.0 1586.360211687193 259.5625" stroke="red" stroke-width="2"/><path d="M 1610 430.0 1583.579875557695 430.0" stroke="red" stroke-width="2"/><path d="M 1610 442.0 1583.579875557695 442.0" stroke="red" stroke-width="2"/><path d="M 1583.579875557695 430.0 1583.579875557695 442.0" stroke="red" stroke-width="2"/><path d="M 1610 514.0 1581.7527080478717 514.0" stroke="blue" stroke-width="2"/><path d="M 1610 526.0 1581.7527080478717 526.0" stroke="blue" stroke-width="2"/><path d="M 1581.7527080478717 514.0 1581.7527080478717 526.0" stroke="blue" stroke-width="2"/><path d="M 1597.9843779667651 115.0 1579.4436823910467 115.0" stroke="red" stroke-width="2"/><path d="M 1586.360211687193 205.28125 1579.4436823910467 205.28125" stroke="red" stroke-width="2"/><path d="M 1579.4436823910467 115.0 1579.4436823910467 205.28125" stroke="red" stroke-width="2"/><path d="M 1592.7897458384643 856.1875 1579.1854871310015 856.1875" stroke="blue" stroke-width="2"/><path d="M 1587.2659134725056 965.5 1579.1854871310015 965.5" stroke="blue" stroke-width="2"/><path d="M 1579.1854871310015 856.1875 1579.1854871310015 965.5" stroke="blue" stroke-width="2"/><path d="M 1610 658.0 1577.7630310198076 658.0" stroke="blue" stroke-width="2"/><path d="M 1610 670.0 1577.7630310198076 670.0" stroke="blue" stroke-width="2"/><path d="M 1577.7630310198076 658.0 1577.7630310198076 670.0" stroke="blue" stroke-width="2"/><path d="M 1610 706.0 1576.3194800078425 706.0" stroke="blue" stroke-width="2"/><path d="M 1587.9044710902333 728.5 1576.3194800078425 728.5" stroke="blue" stroke-width="2"/><path d="M 1576.3194800078425 706.0 1576.3194800078425 728.5" stroke="blue" stroke-width="2"/><path d="M 1610 634.0 1563.7998278670198 634.0" stroke="blue" stroke-width="2"/><path d="M 1610 646.0 1563.7998278670198 646.0" stroke="blue" stroke-width="2"/><path d="M 1563.7998278670198 634.0 1563.7998278670198 646.0" stroke="blue" stroke-width="2"/><path d="M 1610 562.0 1562.969691050988 562.0" stroke="blue" stroke-width="2"/><path d="M 1601.4671447048734 580.0 1562.969691050988 580.0" stroke="blue" stroke-width="2"/><path d="M 1562.969691050988 562.0 1562.969691050988 580.0" stroke="blue" stroke-width="2"/><path d="M 1606.8846453059164 1144.0 1562.6551390426357 1144.0" stroke="green" stroke-width="2"/><path d="M 1589.739762280524 1172.5 1562.6551390426357 1172.5" stroke="green" stroke-width="2"/><path d="M 1562.6551390426357 1144.0 1562.6551390426357 1172.5" stroke="green" stroke-width="2"/><path d="M 1610 682.0 1560.3748402812093 682.0" stroke="blue" stroke-width="2"/><path d="M 1610 694.0 1560.3748402812093 694.0" stroke="blue" stroke-width="2"/><path d="M 1560.3748402812093 682.0 1560.3748402812093 694.0" stroke="blue" stroke-width="2"/><path d="M 1589.875153945096 799.0 1560.3216452763725 799.0" stroke="blue" stroke-width="2"/><path d="M 1579.1854871310015 910.84375 1560.3216452763725 910.84375" stroke="blue" stroke-width="2"/><path d="M 1560.3216452763725 799.0 1560.3216452763725 910.84375" stroke="blue" stroke-width="2"/><path d="M 1610 10.0 1558.3193969925524 10.0" stroke="red" stroke-width="2"/><path d="M 1590.5104423869077 37.0 1558.3193969925524 37.0" stroke="red" stroke-width="2"/><path d="M 1558.3193969925524 10.0 1558.3193969925524 37.0" stroke="red" stroke-width="2"/><path d="M 1586.9310795822805 607.0 1558.0009458588888 607.0" stroke="blue" stroke-width="2"/><path d="M 1563.7998278670198 640.0 1558.0009458588888 640.0" stroke="blue" stroke-width="2"/><path d="M 1558.0009458588888 607.0 1558.0009458588888 640.0" stroke="blue" stroke-width="2"/><path d="M 1610 778.0 1549.2534556405228 778.0" stroke="blue" stroke-width="2"/><path d="M 1560.3216452763725 854.921875 1549.2534556405228 854.921875" stroke="blue" stroke-width="2"/><path d="M 1549.2534556405228 778.0 1549.2534556405228 854.921875" stroke="blue" stroke-width="2"/><path d="M 1610 394.0 1548.622536372628 394.0" stroke="red" stroke-width="2"/><path d="M 1610 406.0 1548.622536372628 406.0" stroke="red" stroke-width="2"/><path d="M 1548.622536372628 394.0 1548.622536372628 406.0" stroke="red" stroke-width="2"/><path d="M 1610 1102.0 1541.2158564570059 1102.0" stroke="green" stroke-width="2"/><path d="M 1610 1114.0 1541.2158564570059 1114.0" stroke="green" stroke-width="2"/><path d="M 1541.2158564570059 1102.0 1541.2158564570059 1114.0" stroke="green" stroke-width="2"/><path d="M 1577.7630310198076 664.0 1539.404575554687 664.0" stroke="blue" stroke-width="2"/><path d="M 1560.3748402812093 688.0 1539.404575554687 688.0" stroke="blue" stroke-width="2"/><path d="M 1539.404575554687 664.0 1539.404575554687 688.0" stroke="blue" stroke-width="2"/><path d="M 1610 466.0 1536.0418122615806 466.0" stroke="blue" stroke-width="2"/><path d="M 1596.5942681777053 484.0 1536.0418122615806 484.0" stroke="blue" stroke-width="2"/><path d="M 1536.0418122615806 466.0 1536.0418122615806 484.0" stroke="blue" stroke-width="2"/><path d="M 1598.6418661048895 88.0 1535.3697239022686 88.0" stroke="red" stroke-width="2"/><path d="M 1579.4436823910467 160.140625 1535.3697239022686 160.140625" stroke="red" stroke-width="2"/><path d="M 1535.3697239022686 88.0 1535.3697239022686 160.140625" stroke="red" stroke-width="2"/><path d="M 1610 1006.0 1528.21282954995 1006.0" stroke="blue" stroke-width="2"/><path d="M 1610 1018.0 1528.21282954995 1018.0" stroke="blue" stroke-width="2"/><path d="M 1528.21282954995 1006.0 1528.21282954995 1018.0" stroke="blue" stroke-width="2"/><path d="M 1610 502.0 1520.262482301466 502.0" stroke="blue" stroke-width="2"/><path d="M 1581.7527080478717 520.0 1520.262482301466 520.0" stroke="blue" stroke-width="2"/><path d="M 1520.262482301466 502.0 1520.262482301466 520.0" stroke="blue" stroke-width="2"/><path d="M 1610 418.0 1518.2330996356252 418.0" stroke="red" stroke-width="2"/><path d="M 1583.579875557695 436.0 1518.2330996356252 436.0" stroke="red" stroke-width="2"/><path d="M 1518.2330996356252 418.0 1518.2330996356252 436.0" stroke="red" stroke-width="2"/><path d="M 1610 1030.0 1504.8773057179408 1030.0" stroke="blue" stroke-width="2"/><path d="M 1610 1042.0 1504.8773057179408 1042.0" stroke="blue" stroke-width="2"/><path d="M 1504.8773057179408 1030.0 1504.8773057179408 1042.0" stroke="blue" stroke-width="2"/><path d="M 1610 1126.0 1497.6655709403797 1126.0" stroke="green" stroke-width="2"/><path d="M 1562.6551390426357 1158.25 1497.6655709403797 1158.25" stroke="green" stroke-width="2"/><path d="M 1497.6655709403797 1126.0 1497.6655709403797 1158.25" stroke="green" stroke-width="2"/><path d="M 1558.3193969925524 23.5 1497.6037541163812 23.5" stroke="red" stroke-width="2"/><path d="M 1535.3697239022686 124.0703125 1497.6037541163812 124.0703125" stroke="red" stroke-width="2"/><path d="M 1497.6037541163812 23.5 1497.6037541163812 124.0703125" stroke="red" stroke-width="2"/><path d="M 1593.9289602770225 544.0 1486.0969313178866 544.0" stroke="blue" stroke-width="2"/><path d="M 1562.969691050988 571.0 1486.0969313178866 571.0" stroke="blue" stroke-width="2"/><path d="M 1486.0969313178866 544.0 1486.0969313178866 571.0" stroke="blue" stroke-width="2"/><path d="M 1610 358.0 1476.8526917736397 358.0" stroke="red" stroke-width="2"/><path d="M 1610 370.0 1476.8526917736397 370.0" stroke="red" stroke-width="2"/><path d="M 1476.8526917736397 358.0 1476.8526917736397 370.0" stroke="red" stroke-width="2"/><path d="M 1610 766.0 1474.9730539423122 766.0" stroke="blue" stroke-width="2"/><path d="M 1549.2534556405228 816.4609375 1474.9730539423122 816.4609375" stroke="blue" stroke-width="2"/><path d="M 1474.9730539423122 766.0 1474.9730539423122 816.4609375" stroke="blue" stroke-width="2"/><path d="M 1548.622536372628 400.0 1449.780726076343 400.0" stroke="red" stroke-width="2"/><path d="M 1518.2330996356252 427.0 1449.780726076343 427.0" stroke="red" stroke-width="2"/><path d="M 1449.780726076343 400.0 1449.780726076343 427.0" stroke="red" stroke-width="2"/><path d="M 1536.0418122615806 475.0 1444.7769098665801 475.0" stroke="blue" stroke-width="2"/><path d="M 1520.262482301466 511.0 1444.7769098665801 511.0" stroke="blue" stroke-width="2"/><path d="M 1444.7769098665801 475.0 1444.7769098665801 511.0" stroke="blue" stroke-width="2"/><path d="M 1610 1066.0 1434.2365644503434 1066.0" stroke="green" stroke-width="2"/><path d="M 1610 1078.0 1434.2365644503434 1078.0" stroke="green" stroke-width="2"/><path d="M 1434.2365644503434 1066.0 1434.2365644503434 1078.0" stroke="green" stroke-width="2"/><path d="M 1558.0009458588888 623.5 1428.9343532532284 623.5" stroke="blue" stroke-width="2"/><path d="M 1539.404575554687 676.0 1428.9343532532284 676.0" stroke="blue" stroke-width="2"/><path d="M 1428.9343532532284 623.5 1428.9343532532284 676.0" stroke="blue" stroke-width="2"/><path d="M 1576.3194800078425 717.25 1421.131603673048 717.25" stroke="blue" stroke-width="2"/><path d="M 1474.9730539423122 791.23046875 1421.131603673048 791.23046875" stroke="blue" stroke-width="2"/><path d="M 1421.131603673048 717.25 1421.131603673048 791.23046875" stroke="blue" stroke-width="2"/><path d="M 1528.21282954995 1012.0 1414.6508972030017 1012.0" stroke="blue" stroke-width="2"/><path d="M 1504.8773057179408 1036.0 1414.6508972030017 1036.0" stroke="blue" stroke-width="2"/><path d="M 1414.6508972030017 1012.0 1414.6508972030017 1036.0" stroke="blue" stroke-width="2"/><path d="M 1541.2158564570059 1108.0 1365.0743298068357 1108.0" stroke="green" stroke-width="2"/><path d="M 1497.6655709403797 1142.125 1365.0743298068357 1142.125" stroke="green" stroke-width="2"/><path d="M 1365.0743298068357 1108.0 1365.0743298068357 1142.125" stroke="green" stroke-width="2"/><path d="M 1610 454.0 1350.035799503558 454.0" stroke="blue" stroke-width="2"/><path d="M 1444.7769098665801 493.0 1350.035799503558 493.0" stroke="blue" stroke-width="2"/><path d="M 1350.035799503558 454.0 1350.035799503558 493.0" stroke="blue" stroke-width="2"/><path d="M 1486.0969313178866 557.5 1331.0928536872948 557.5" stroke="blue" stroke-width="2"/><path d="M 1428.9343532532284 649.75 1331.0928536872948 649.75" stroke="blue" stroke-width="2"/><path d="M 1331.0928536872948 557.5 1331.0928536872948 649.75" stroke="blue" stroke-width="2"/><path d="M 1497.6037541163812 73.78515625 1326.6955337562497 73.78515625" stroke="red" stroke-width="2"/><path d="M 1476.8526917736397 364.0 1326.6955337562497 364.0" stroke="red" stroke-width="2"/><path d="M 1326.6955337562497 73.78515625 1326.6955337562497 364.0" stroke="red" stroke-width="2"/><path d="M 1610 1090.0 1186.5632296421695 1090.0" stroke="green" stroke-width="2"/><path d="M 1365.0743298068357 1125.0625 1186.5632296421695 1125.0625" stroke="green" stroke-width="2"/><path d="M 1186.5632296421695 1090.0 1186.5632296421695 1125.0625" stroke="green" stroke-width="2"/><path d="M 1610 382.0 1131.3958286349355 382.0" stroke="red" stroke-width="2"/><path d="M 1449.780726076343 413.5 1131.3958286349355 413.5" stroke="red" stroke-width="2"/><path d="M 1131.3958286349355 382.0 1131.3958286349355 413.5" stroke="red" stroke-width="2"/><path d="M 1421.131603673048 754.240234375 1128.2357989776765 754.240234375" stroke="blue" stroke-width="2"/><path d="M 1414.6508972030017 1024.0 1128.2357989776765 1024.0" stroke="blue" stroke-width="2"/><path d="M 1128.2357989776765 754.240234375 1128.2357989776765 1024.0" stroke="blue" stroke-width="2"/><path d="M 1331.0928536872948 603.625 1046.2478591663703 603.625" stroke="blue" stroke-width="2"/><path d="M 1128.2357989776765 889.1201171875 1046.2478591663703 889.1201171875" stroke="blue" stroke-width="2"/><path d="M 1046.2478591663703 603.625 1046.2478591663703 889.1201171875" stroke="blue" stroke-width="2"/><path d="M 1350.035799503558 473.5 940.8540688123812 473.5" stroke="blue" stroke-width="2"/><path d="M 1046.2478591663703 746.37255859375 940.8540688123812 746.37255859375" stroke="blue" stroke-width="2"/><path d="M 940.8540688123812 473.5 940.8540688123812 746.37255859375" stroke="blue" stroke-width="2"/><path d="M 1434.2365644503434 1072.0 847.1712248351919 1072.0" stroke="green" stroke-width="2"/><path d="M 1186.5632296421695 1107.53125 847.1712248351919 1107.53125" stroke="green" stroke-width="2"/><path d="M 847.1712248351919 1072.0 847.1712248351919 1107.53125" stroke="green" stroke-width="2"/><path d="M 1326.6955337562497 218.892578125 792.9313105617041 218.892578125" stroke="red" stroke-width="2"/><path d="M 1131.3958286349355 397.75 792.9313105617041 397.75" stroke="red" stroke-width="2"/><path d="M 792.9313105617041 218.892578125 792.9313105617041 397.75" stroke="red" stroke-width="2"/><path d="M 1610 1054.0 397.1328670395974 1054.0" stroke="black" stroke-width="2"/><path d="M 847.1712248351919 1089.765625 397.1328670395974 1089.765625" stroke="black" stroke-width="2"/><path d="M 397.1328670395974 1054.0 397.1328670395974 1089.765625" stroke="black" stroke-width="2"/><path d="M 940.8540688123812 609.936279296875 138.07711070124833 609.936279296875" stroke="black" stroke-width="2"/><path d="M 397.1328670395974 1071.8828125 138.07711070124833 1071.8828125" stroke="black" stroke-width="2"/><path d="M 138.07711070124833 609.936279296875 138.07711070124833 1071.8828125" stroke="black" stroke-width="2"/><path d="M 792.9313105617041 308.3212890625 9.999999999999773 308.3212890625" stroke="black" stroke-width="2"/><path d="M 138.07711070124833 840.9095458984375 9.999999999999773 840.9095458984375" stroke="black" stroke-width="2"/><path d="M 9.999999999999773 308.3212890625 9.999999999999773 840.9095458984375" stroke="black" stroke-width="2"/></svg>