<?xml version="1.0" encoding="utf-8"?>
<svg height="1220" width="1913.0" xmlns="http://www.w3.org/2000/svg"><rect fill="white" height="100%" width="100%" x="0" y="0"/><text font-size="12" x="1615" y="926.0">Oxygen (Mathematics)</text><text font-size="12" x="1615" y="902.0">Hydrogen (Mathematics)</text><text font-size="12" x="1615" y="1166.0">Earth (Everyday life)</text><text font-size="12" x="1615" y="158.0">Kelvin (People)</text><text font-size="12" x="1615" y="962.0">Density (History)</text><text font-size="12" x="1615" y="422.0">Electron (History)</text><text font-size="12" x="1615" y="1070.0">Sun (History)</text><text font-size="12" x="1615" y="1178.0">Water (History)</text><text font-size="12" x="1615" y="854.0">Nitrogen (History)</text><text font-size="12" x="1615" y="806.0">Carbon (History)</text><text font-size="12" x="1615" y="410.0">Quantum mechanics (History)</text><text font-size="12" x="1615" y="434.0">Physics (History)</text><text font-size="12" x="1615" y="938.0">Carbon dioxide (Arts)</text><text font-size="12" x="1615" y="794.0">Iron (History)</text><text font-size="12" x="1615" y="530.0">Energy (Arts)</text><text font-size="12" x="1615" y="506.0">Temperature (Physical sciences)</text><text font-size="12" x="1615" y="950.0">Chemical element (Arts)</text><text font-size="12" x="1615" y="338.0">Atom (Arts)</text><text font-size="12" x="1615" y="182.0">International System of Units (Arts)</text><text font-size="12" x="1615" y="866.0">Helium (Arts)</text><text font-size="12" x="1615" y="446.0">Mass (Arts)</text><text font-size="12" x="1615" y="350.0">Molecule (Arts)</text><text font-size="12" x="1615" y="518.0">Pressure (Philosophy and religion)</text><text font-size="12" x="1615" y="1106.0">Solar System (People)</text><text font-size="12" x="1615" y="986.0">Ion (People)</text><text font-size="12" x="1615" y="194.0">Joule (People)</text><text font-size="12" x="1615" y="698.0">Copper (People)</text><text font-size="12" x="1615" y="266.0">Magnetic field (Geography)</text><text font-size="12" x="1615" y="1118.0">Astronomy (Society and social sciences)</text><text font-size="12" x="1615" y="38.0">Pascal (unit) (Society and social sciences)</text><text font-size="12" x="1615" y="614.0">Sodium (Biological and health sciences)</text><text font-size="12" x="1615" y="170.0">Metre (People)</text><text font-size="12" x="1615" y="62.0">Kilogram (Technology)</text><text font-size="12" x="1615" y="1058.0">Star (People)</text><text font-size="12" x="1615" y="1022.0">Solid (People)</text><text font-size="12" x="1615" y="482.0">Gravity (History)</text><text font-size="12" x="1615" y="386.0">Photon (People)</text><text font-size="12" x="1615" y="134.0">Second (People)</text><text font-size="12" x="1615" y="734.0">Magnesium (People)</text><text font-size="12" x="1615" y="218.0">Electronvolt (Biological and health sciences)</text><text font-size="12" x="1615" y="314.0">Proton (People)</text><text font-size="12" x="1615" y="638.0">Sulfur (People)</text><text font-size="12" x="1615" y="302.0">Astronomical unit (People)</text><text font-size="12" x="1615" y="146.0">Newton (unit) (Mathematics)</text><text font-size="12" x="1615" y="662.0">Chlorine (Geography)</text><text font-size="12" x="1615" y="110.0">Hertz (Biological and health sciences)</text><text font-size="12" x="1615" y="746.0">Zinc (Geography)</text><text font-size="12" x="1615" y="86.0">Watt (History)</text><text font-size="12" x="1615" y="722.0">Gold (Society and social sciences)</text><text font-size="12" x="1615" y="758.0">Mercury (element) (Society and social sciences)</text><text font-size="12" x="1615" y="362.0">Radioactive decay (Philosophy and religion)</text><text font-size="12" x="1615" y="998.0">Chemistry (People)</text><text font-size="12" x="1615" y="50.0">Celsius (People)</text><text font-size="12" x="1615" y="842.0">Silicon (Technology)</text><text font-size="12" x="1615" y="1202.0">Gloss (optics) (Philosophy and religion)</text><text font-size="12" x="1615" y="554.0">Speed of light (Society and social sciences)</text><text font-size="12" x="1615" y="122.0">Mole (unit) (Physical sciences)</text><text font-size="12" x="1615" y="974.0">Ammonia (Physical sciences)</text><text font-size="12" x="1615" y="878.0">Isotope (Mathematics)</text><text font-size="12" x="1615" y="290.0">Electromagnetic radiation (Arts)</text><text font-size="12" x="1615" y="326.0">Atomic nucleus (Arts)</text><text font-size="12" x="1615" y="770.0">Nickel (Mathematics)</text><text font-size="12" x="1615" y="1190.0">Universe (Philosophy and religion)</text><text font-size="12" x="1615" y="1154.0">Moon (People)</text><text font-size="12" x="1615" y="1130.0">Interstellar medium (Geography)</text><text font-size="12" x="1615" y="686.0">Potassium (People)</text><text font-size="12" x="1615" y="242.0">Electric charge (People)</text><text font-size="12" x="1615" y="278.0">Magnetism (People)</text><text font-size="12" x="1615" y="674.0">Calcium (Geography)</text><text font-size="12" x="1615" y="1082.0">Milky Way (Physical sciences)</text><text font-size="12" x="1615" y="254.0">Electromagnetism (Arts)</text><text font-size="12" x="1615" y="890.0">Uranium (Society and social sciences)</text><text font-size="12" x="1615" y="374.0">Gas (Arts)</text><text font-size="12" x="1615" y="830.0">Lead (Biological and health sciences)</text><text font-size="12" x="1615" y="578.0">Infrared (Geography)</text><text font-size="12" x="1615" y="1046.0">Ultraviolet (Biological and health sciences)</text><text font-size="12" x="1615" y="98.0">Volt (Physical sciences)</text><text font-size="12" x="1615" y="470.0">Special relativity (Society and social sciences)</text><text font-size="12" x="1615" y="1034.0">Phase (matter) (Biological and health sciences)</text><text font-size="12" x="1615" y="914.0">Periodic table (Arts)</text><text font-size="12" x="1615" y="566.0">Plasma (physics) (Society and social sciences)</text><text font-size="12" x="1615" y="206.0">Degree (angle) (Geography)</text><text font-size="12" x="1615" y="626.0">Phosphorus (Physical sciences)</text><text font-size="12" x="1615" y="14.0">Ampere (Geography)</text><text font-size="12" x="1615" y="1010.0">Spectroscopy (Physical sciences)</text><text font-size="12" x="1615" y="1094.0">Galaxy (Physical sciences)</text><text font-size="12" x="1615" y="602.0">X-ray (History)</text><text font-size="12" x="1615" y="782.0">Lithium (Philosophy and religion)</text><text font-size="12" x="1615" y="650.0">Manganese (Physical sciences)</text><text font-size="12" x="1615" y="458.0">Force (Physical sciences)</text><text font-size="12" x="1615" y="26.0">Coulomb (Physical sciences)</text><text font-size="12" x="1615" y="74.0">Tesla (unit) (Biological and health sciences)</text><text font-size="12" x="1615" y="230.0">Radian (Geography)</text><text font-size="12" x="1615" y="710.0">Silver (Physical sciences)</text><text font-size="12" x="1615" y="1142.0">Planet (Physical sciences)</text><text font-size="12" x="1615" y="818.0">Platinum (Arts)</text><text font-size="12" x="1615" y="494.0">General relativity (Arts)</text><text font-size="12" x="1615" y="398.0">Particle physics (Arts)</text><text font-size="12" x="1615" y="542.0">Thermodynamics (Physical sciences)</text><text font-size="12" x="1615" y="590.0">Wavelength (Physical sciences)</text><path d="M 1610 10.0 1450.0 10.0" stroke="blue" stroke-width="2"/><path d="M 1610 22.0 1450.0 22.0" stroke="blue" stroke-width="2"/><path d="M 1450.0 10.0 1450.0 22.0" stroke="blue" stroke-width="2"/><path d="M 1610 82.0 1450.0 82.0" stroke="blue" stroke-width="2"/><path d="M 1610 94.0 1450.0 94.0" stroke="blue" stroke-width="2"/><path d="M 1450.0 82.0 1450.0 94.0" stroke="blue" stroke-width="2"/><path d="M 1610 130.0 1450.0 130.0" stroke="blue" stroke-width="2"/><path d="M 1610 142.0 1450.0 142.0" stroke="blue" stroke-width="2"/><path d="M 1450.0 130.0 1450.0 142.0" stroke="blue" stroke-width="2"/><path d="M 1610 154.0 1450.0 154.0" stroke="blue" stroke-width="2"/><path d="M 1610 166.0 1450.0 166.0" stroke="blue" stroke-width="2"/><path d="M 1450.0 154.0 1450.0 166.0" stroke="blue" stroke-width="2"/><path d="M 1610 178.0 1450.0 178.0" stroke="blue" stroke-width="2"/><path d="M 1610 190.0 1450.0 190.0" stroke="blue" stroke-width="2"/><path d="M 1450.0 178.0 1450.0 190.0" stroke="blue" stroke-width="2"/><path d="M 1610 238.0 1450.0 238.0" stroke="blue" stroke-width="2"/><path d="M 1610 250.0 1450.0 250.0" stroke="blue" stroke-width="2"/><path d="M 1450.0 238.0 1450.0 250.0" stroke="blue" stroke-width="2"/><path d="M 1610 550.0 1450.0 550.0" stroke="blue" stroke-width="2"/><path d="M 1610 562.0 1450.0 562.0" stroke="blue" stroke-width="2"/><path d="M 1450.0 550.0 1450.0 562.0" stroke="blue" stroke-width="2"/><path d="M 1610 574.0 1450.0 574.0" stroke="blue" stroke-width="2"/><path d="M 1610 586.0 1450.0 586.0" stroke="blue" stroke-width="2"/><path d="M 1450.0 574.0 1450.0 586.0" stroke="blue" stroke-width="2"/><path d="M 1610 382.0 1450.0 382.0" stroke="blue" stroke-width="2"/><path d="M 1610 394.0 1450.0 394.0" stroke="blue" stroke-width="2"/><path d="M 1450.0 382.0 1450.0 394.0" stroke="blue" stroke-width="2"/><path d="M 1610 502.0 1450.0 502.0" stroke="blue" stroke-width="2"/><path d="M 1610 514.0 1450.0 514.0" stroke="blue" stroke-width="2"/><path d="M 1450.0 502.0 1450.0 514.0" stroke="blue" stroke-width="2"/><path d="M 1610 442.0 1450.0 442.0" stroke="blue" stroke-width="2"/><path d="M 1610 454.0 1450.0 454.0" stroke="blue" stroke-width="2"/><path d="M 1450.0 442.0 1450.0 454.0" stroke="blue" stroke-width="2"/><path d="M 1610 478.0 1450.0 478.0" stroke="blue" stroke-width="2"/><path d="M 1610 490.0 1450.0 490.0" stroke="blue" stroke-width="2"/><path d="M 1450.0 478.0 1450.0 490.0" stroke="blue" stroke-width="2"/><path d="M 1610 310.0 1450.0 310.0" stroke="blue" stroke-width="2"/><path d="M 1610 322.0 1450.0 322.0" stroke="blue" stroke-width="2"/><path d="M 1450.0 310.0 1450.0 322.0" stroke="blue" stroke-width="2"/><path d="M 1610 334.0 1450.0 334.0" stroke="blue" stroke-width="2"/><path d="M 1610 346.0 1450.0 346.0" stroke="blue" stroke-width="2"/><path d="M 1450.0 334.0 1450.0 346.0" stroke="blue" stroke-width="2"/><path d="M 1610 1054.0 1450.0 1054.0" stroke="green" stroke-width="2"/><path d="M 1610 1066.0 1450.0 1066.0" stroke="green" stroke-width="2"/><path d="M 1450.0 1054.0 1450.0 1066.0" stroke="green" stroke-width="2"/><path d="M 1610 1078.0 1450.0 1078.0" stroke="green" stroke-width="2"/><path d="M 1610 1090.0 1450.0 1090.0" stroke="green" stroke-width="2"/><path d="M 1450.0 1078.0 1450.0 1090.0" stroke="green" stroke-width="2"/><path d="M 1610 1162.0 1450.0 1162.0" stroke="green" stroke-width="2"/><path d="M 1610 1174.0 1450.0 1174.0" stroke="green" stroke-width="2"/><path d="M 1450.0 1162.0 1450.0 1174.0" stroke="green" stroke-width="2"/><path d="M 1610 610.0 1450.0 610.0" stroke="red" stroke-width="2"/><path d="M 1610 622.0 1450.0 622.0" stroke="red" stroke-width="2"/><path d="M 1450.0 610.0 1450.0 622.0" stroke="red" stroke-width="2"/><path d="M 1610 730.0 1450.0 730.0" stroke="red" stroke-width="2"/><path d="M 1610 742.0 1450.0 742.0" stroke="red" stroke-width="2"/><path d="M 1450.0 730.0 1450.0 742.0" stroke="red" stroke-width="2"/><path d="M 1610 754.0 1450.0 754.0" stroke="red" stroke-width="2"/><path d="M 1610 766.0 1450.0 766.0" stroke="red" stroke-width="2"/><path d="M 1450.0 754.0 1450.0 766.0" stroke="red" stroke-width="2"/><path d="M 1610 694.0 1450.0 694.0" stroke="red" stroke-width="2"/><path d="M 1610 706.0 1450.0 706.0" stroke="red" stroke-width="2"/><path d="M 1450.0 694.0 1450.0 706.0" stroke="red" stroke-width="2"/><path d="M 1610 922.0 1450.0 922.0" stroke="red" stroke-width="2"/><path d="M 1610 934.0 1450.0 934.0" stroke="red" stroke-width="2"/><path d="M 1450.0 922.0 1450.0 934.0" stroke="red" stroke-width="2"/><path d="M 1610 862.0 1450.0 862.0" stroke="red" stroke-width="2"/><path d="M 1610 874.0 1450.0 874.0" stroke="red" stroke-width="2"/><path d="M 1450.0 862.0 1450.0 874.0" stroke="red" stroke-width="2"/><path d="M 1610 982.0 1450.0 982.0" stroke="red" stroke-width="2"/><path d="M 1610 994.0 1450.0 994.0" stroke="red" stroke-width="2"/><path d="M 1450.0 982.0 1450.0 994.0" stroke="red" stroke-width="2"/><path d="M 1610 1018.0 1450.0 1018.0" stroke="red" stroke-width="2"/><path d="M 1610 1030.0 1450.0 1030.0" stroke="red" stroke-width="2"/><path d="M 1450.0 1018.0 1450.0 1030.0" stroke="red" stroke-width="2"/><path d="M 1450.0 244.0 1290.0 244.0" stroke="blue" stroke-width="2"/><path d="M 1610 262.0 1290.0 262.0" stroke="blue" stroke-width="2"/><path d="M 1290.0 244.0 1290.0 262.0" stroke="blue" stroke-width="2"/><path d="M 1450.0 388.0 1290.0 388.0" stroke="blue" stroke-width="2"/><path d="M 1610 406.0 1290.0 406.0" stroke="blue" stroke-width="2"/><path d="M 1290.0 388.0 1290.0 406.0" stroke="blue" stroke-width="2"/><path d="M 1450.0 448.0 1290.0 448.0" stroke="blue" stroke-width="2"/><path d="M 1610 466.0 1290.0 466.0" stroke="blue" stroke-width="2"/><path d="M 1290.0 448.0 1290.0 466.0" stroke="blue" stroke-width="2"/><path d="M 1450.0 700.0 1290.0 700.0" stroke="red" stroke-width="2"/><path d="M 1610 718.0 1290.0 718.0" stroke="red" stroke-width="2"/><path d="M 1290.0 700.0 1290.0 718.0" stroke="red" stroke-width="2"/><path d="M 1450.0 988.0 1290.0 988.0" stroke="red" stroke-width="2"/><path d="M 1610 1006.0 1290.0 1006.0" stroke="red" stroke-width="2"/><path d="M 1290.0 988.0 1290.0 1006.0" stroke="red" stroke-width="2"/><path d="M 1450.0 508.0 1290.0 508.0" stroke="blue" stroke-width="2"/><path d="M 1610 526.0 1290.0 526.0" stroke="blue" stroke-width="2"/><path d="M 1290.0 508.0 1290.0 526.0" stroke="blue" stroke-width="2"/><path d="M 1290.0 517.0 1290.0 517.0" stroke="blue" stroke-width="2"/><path d="M 1610 538.0 1290.0 538.0" stroke="blue" stroke-width="2"/><path d="M 1290.0 517.0 1290.0 538.0" stroke="blue" stroke-width="2"/><path d="M 1450.0 16.0 1290.0 16.0" stroke="blue" stroke-width="2"/><path d="M 1610 34.0 1290.0 34.0" stroke="blue" stroke-width="2"/><path d="M 1290.0 16.0 1290.0 34.0" stroke="blue" stroke-width="2"/><path d="M 1290.0 25.0 1290.0 25.0" stroke="blue" stroke-width="2"/><path d="M 1610 46.0 1290.0 46.0" stroke="blue" stroke-width="2"/><path d="M 1290.0 25.0 1290.0 46.0" stroke="blue" stroke-width="2"/><path d="M 1290.0 35.5 1290.0 35.5" stroke="blue" stroke-width="2"/><path d="M 1610 58.0 1290.0 58.0" stroke="blue" stroke-width="2"/><path d="M 1290.0 35.5 1290.0 58.0" stroke="blue" stroke-width="2"/><path d="M 1290.0 253.0 1130.0 253.0" stroke="blue" stroke-width="2"/><path d="M 1610 274.0 1130.0 274.0" stroke="blue" stroke-width="2"/><path d="M 1130.0 253.0 1130.0 274.0" stroke="blue" stroke-width="2"/><path d="M 1130.0 263.5 1130.0 263.5" stroke="blue" stroke-width="2"/><path d="M 1610 286.0 1130.0 286.0" stroke="blue" stroke-width="2"/><path d="M 1130.0 263.5 1130.0 286.0" stroke="blue" stroke-width="2"/><path d="M 1290.0 397.0 1130.0 397.0" stroke="blue" stroke-width="2"/><path d="M 1610 418.0 1130.0 418.0" stroke="blue" stroke-width="2"/><path d="M 1130.0 397.0 1130.0 418.0" stroke="blue" stroke-width="2"/><path d="M 1130.0 407.5 1130.0 407.5" stroke="blue" stroke-width="2"/><path d="M 1610 430.0 1130.0 430.0" stroke="blue" stroke-width="2"/><path d="M 1130.0 407.5 1130.0 430.0" stroke="blue" stroke-width="2"/><path d="M 1290.0 457.0 1130.0 457.0" stroke="blue" stroke-width="2"/><path d="M 1450.0 484.0 1130.0 484.0" stroke="blue" stroke-width="2"/><path d="M 1130.0 457.0 1130.0 484.0" stroke="blue" stroke-width="2"/><path d="M 1450.0 868.0 1290.0 868.0" stroke="red" stroke-width="2"/><path d="M 1610 886.0 1290.0 886.0" stroke="red" stroke-width="2"/><path d="M 1290.0 868.0 1290.0 886.0" stroke="red" stroke-width="2"/><path d="M 1290.0 877.0 1290.0 877.0" stroke="red" stroke-width="2"/><path d="M 1610 898.0 1290.0 898.0" stroke="red" stroke-width="2"/><path d="M 1290.0 877.0 1290.0 898.0" stroke="red" stroke-width="2"/><path d="M 1290.0 887.5 1290.0 887.5" stroke="red" stroke-width="2"/><path d="M 1610 910.0 1290.0 910.0" stroke="red" stroke-width="2"/><path d="M 1290.0 887.5 1290.0 910.0" stroke="red" stroke-width="2"/><path d="M 1290.0 997.0 1130.0 997.0" stroke="red" stroke-width="2"/><path d="M 1450.0 1024.0 1130.0 1024.0" stroke="red" stroke-width="2"/><path d="M 1130.0 997.0 1130.0 1024.0" stroke="red" stroke-width="2"/><path d="M 1290.0 46.75 1130.0 46.75" stroke="blue" stroke-width="2"/><path d="M 1610 70.0 1130.0 70.0" stroke="blue" stroke-width="2"/><path d="M 1130.0 46.75 1130.0 70.0" stroke="blue" stroke-width="2"/><path d="M 1450.0 316.0 1290.0 316.0" stroke="blue" stroke-width="2"/><path d="M 1450.0 340.0 1290.0 340.0" stroke="blue" stroke-width="2"/><path d="M 1290.0 316.0 1290.0 340.0" stroke="blue" stroke-width="2"/><path d="M 1290.0 328.0 1290.0 328.0" stroke="blue" stroke-width="2"/><path d="M 1610 358.0 1290.0 358.0" stroke="blue" stroke-width="2"/><path d="M 1290.0 328.0 1290.0 358.0" stroke="blue" stroke-width="2"/><path d="M 1290.0 343.0 1290.0 343.0" stroke="blue" stroke-width="2"/><path d="M 1610 370.0 1290.0 370.0" stroke="blue" stroke-width="2"/><path d="M 1290.0 343.0 1290.0 370.0" stroke="blue" stroke-width="2"/><path d="M 1450.0 1060.0 1290.0 1060.0" stroke="green" stroke-width="2"/><path d="M 1450.0 1084.0 1290.0 1084.0" stroke="green" stroke-width="2"/><path d="M 1290.0 1060.0 1290.0 1084.0" stroke="green" stroke-width="2"/><path d="M 1290.0 1072.0 1290.0 1072.0" stroke="green" stroke-width="2"/><path d="M 1610 1102.0 1290.0 1102.0" stroke="green" stroke-width="2"/><path d="M 1290.0 1072.0 1290.0 1102.0" stroke="green" stroke-width="2"/><path d="M 1290.0 1087.0 1290.0 1087.0" stroke="green" stroke-width="2"/><path d="M 1610 1114.0 1290.0 1114.0" stroke="green" stroke-width="2"/><path d="M 1290.0 1087.0 1290.0 1114.0" stroke="green" stroke-width="2"/><path d="M 1450.0 616.0 1290.0 616.0" stroke="red" stroke-width="2"/><path d="M 1610 634.0 1290.0 634.0" stroke="red" stroke-width="2"/><path d="M 1290.0 616.0 1290.0 634.0" stroke="red" stroke-width="2"/><path d="M 1290.0 625.0 1290.0 625.0" stroke="red" stroke-width="2"/><path d="M 1610 646.0 1290.0 646.0" stroke="red" stroke-width="2"/><path d="M 1290.0 625.0 1290.0 646.0" stroke="red" stroke-width="2"/><path d="M 1290.0 635.5 1290.0 635.5" stroke="red" stroke-width="2"/><path d="M 1610 658.0 1290.0 658.0" stroke="red" stroke-width="2"/><path d="M 1290.0 635.5 1290.0 658.0" stroke="red" stroke-width="2"/><path d="M 1290.0 646.75 1290.0 646.75" stroke="red" stroke-width="2"/><path d="M 1610 670.0 1290.0 670.0" stroke="red" stroke-width="2"/><path d="M 1290.0 646.75 1290.0 670.0" stroke="red" stroke-width="2"/><path d="M 1290.0 658.375 1290.0 658.375" stroke="red" stroke-width="2"/><path d="M 1610 682.0 1290.0 682.0" stroke="red" stroke-width="2"/><path d="M 1290.0 658.375 1290.0 682.0" stroke="red" stroke-width="2"/><path d="M 1130.0 58.375 970.0 58.375" stroke="blue" stroke-width="2"/><path d="M 1450.0 88.0 970.0 88.0" stroke="blue" stroke-width="2"/><path d="M 970.0 58.375 970.0 88.0" stroke="blue" stroke-width="2"/><path d="M 970.0 73.1875 970.0 73.1875" stroke="blue" stroke-width="2"/><path d="M 1610 106.0 970.0 106.0" stroke="blue" stroke-width="2"/><path d="M 970.0 73.1875 970.0 106.0" stroke="blue" stroke-width="2"/><path d="M 1290.0 1100.5 1130.0 1100.5" stroke="green" stroke-width="2"/><path d="M 1610 1126.0 1130.0 1126.0" stroke="green" stroke-width="2"/><path d="M 1130.0 1100.5 1130.0 1126.0" stroke="green" stroke-width="2"/><path d="M 1130.0 1113.25 1130.0 1113.25" stroke="green" stroke-width="2"/><path d="M 1610 1138.0 1130.0 1138.0" stroke="green" stroke-width="2"/><path d="M 1130.0 1113.25 1130.0 1138.0" stroke="green" stroke-width="2"/><path d="M 1130.0 1125.625 1130.0 1125.625" stroke="green" stroke-width="2"/><path d="M 1610 1150.0 1130.0 1150.0" stroke="green" stroke-width="2"/><path d="M 1130.0 1125.625 1130.0 1150.0" stroke="green" stroke-width="2"/><path d="M 970.0 89.59375 810.0 89.59375" stroke="blue" stroke-width="2"/><path d="M 1610 118.0 810.0 118.0" stroke="blue" stroke-width="2"/><path d="M 810.0 89.59375 810.0 118.0" stroke="blue" stroke-width="2"/><path d="M 1130.0 1137.8125 970.0 1137.8125" stroke="green" stroke-width="2"/><path d="M 1450.0 1168.0 970.0 1168.0" stroke="green" stroke-width="2"/><path d="M 970.0 1137.8125 970.0 1168.0" stroke="green" stroke-width="2"/><path d="M 970.0 1152.90625 970.0 1152.90625" stroke="green" stroke-width="2"/><path d="M 1610 1186.0 970.0 1186.0" stroke="green" stroke-width="2"/><path d="M 970.0 1152.90625 970.0 1186.0" stroke="green" stroke-width="2"/><path d="M 810.0 103.796875 650.0 103.796875" stroke="blue" stroke-width="2"/><path d="M 1450.0 136.0 650.0 136.0" stroke="blue" stroke-width="2"/><path d="M 650.0 103.796875 650.0 136.0" stroke="blue" stroke-width="2"/><path d="M 650.0 119.8984375 650.0 119.8984375" stroke="blue" stroke-width="2"/><path d="M 1450.0 160.0 650.0 160.0" stroke="blue" stroke-width="2"/><path d="M 650.0 119.8984375 650.0 160.0" stroke="blue" stroke-width="2"/><path d="M 650.0 139.94921875 650.0 139.94921875" stroke="blue" stroke-width="2"/><path d="M 1450.0 184.0 650.0 184.0" stroke="blue" stroke-width="2"/><path d="M 650.0 139.94921875 650.0 184.0" stroke="blue" stroke-width="2"/><path d="M 650.0 161.974609375 650.0 161.974609375" stroke="blue" stroke-width="2"/><path d="M 1610 202.0 650.0 202.0" stroke="blue" stroke-width="2"/><path d="M 650.0 161.974609375 650.0 202.0" stroke="blue" stroke-width="2"/><path d="M 650.0 181.9873046875 650.0 181.9873046875" stroke="blue" stroke-width="2"/><path d="M 1610 214.0 650.0 214.0" stroke="blue" stroke-width="2"/><path d="M 650.0 181.9873046875 650.0 214.0" stroke="blue" stroke-width="2"/><path d="M 650.0 197.99365234375 490.0 197.99365234375" stroke="blue" stroke-width="2"/><path d="M 1610 226.0 490.0 226.0" stroke="blue" stroke-width="2"/><path d="M 490.0 197.99365234375 490.0 226.0" stroke="blue" stroke-width="2"/><path d="M 1290.0 670.1875 1130.0 670.1875" stroke="red" stroke-width="2"/><path d="M 1290.0 709.0 1130.0 709.0" stroke="red" stroke-width="2"/><path d="M 1130.0 670.1875 1130.0 709.0" stroke="red" stroke-width="2"/><path d="M 1130.0 689.59375 1130.0 689.59375" stroke="red" stroke-width="2"/><path d="M 1450.0 736.0 1130.0 736.0" stroke="red" stroke-width="2"/><path d="M 1130.0 689.59375 1130.0 736.0" stroke="red" stroke-width="2"/><path d="M 1130.0 712.796875 1130.0 712.796875" stroke="red" stroke-width="2"/><path d="M 1450.0 760.0 1130.0 760.0" stroke="red" stroke-width="2"/><path d="M 1130.0 712.796875 1130.0 760.0" stroke="red" stroke-width="2"/><path d="M 1130.0 736.3984375 1130.0 736.3984375" stroke="red" stroke-width="2"/><path d="M 1610 778.0 1130.0 778.0" stroke="red" stroke-width="2"/><path d="M 1130.0 736.3984375 1130.0 778.0" stroke="red" stroke-width="2"/><path d="M 1130.0 757.19921875 1130.0 757.19921875" stroke="red" stroke-width="2"/><path d="M 1610 790.0 1130.0 790.0" stroke="red" stroke-width="2"/><path d="M 1130.0 757.19921875 1130.0 790.0" stroke="red" stroke-width="2"/><path d="M 1130.0 773.599609375 1130.0 773.599609375" stroke="red" stroke-width="2"/><path d="M 1610 802.0 1130.0 802.0" stroke="red" stroke-width="2"/><path d="M 1130.0 773.599609375 1130.0 802.0" stroke="red" stroke-width="2"/><path d="M 1130.0 787.7998046875 1130.0 787.7998046875" stroke="red" stroke-width="2"/><path d="M 1610 814.0 1130.0 814.0" stroke="red" stroke-width="2"/><path d="M 1130.0 787.7998046875 1130.0 814.0" stroke="red" stroke-width="2"/><path d="M 1130.0 800.89990234375 1130.0 800.89990234375" stroke="red" stroke-width="2"/><path d="M 1610 826.0 1130.0 826.0" stroke="red" stroke-width="2"/><path d="M 1130.0 800.89990234375 1130.0 826.0" stroke="red" stroke-width="2"/><path d="M 1130.0 813.449951171875 1130.0 813.449951171875" stroke="red" stroke-width="2"/><path d="M 1610 838.0 1130.0 838.0" stroke="red" stroke-width="2"/><path d="M 1130.0 813.449951171875 1130.0 838.0" stroke="red" stroke-width="2"/><path d="M 1130.0 825.7249755859375 1130.0 825.7249755859375" stroke="red" stroke-width="2"/><path d="M 1610 850.0 1130.0 850.0" stroke="red" stroke-width="2"/><path d="M 1130.0 825.7249755859375 1130.0 850.0" stroke="red" stroke-width="2"/><path d="M 490.0 211.996826171875 330.0 211.996826171875" stroke="blue" stroke-width="2"/><path d="M 1130.0 274.75 330.0 274.75" stroke="blue" stroke-width="2"/><path d="M 330.0 211.996826171875 330.0 274.75" stroke="blue" stroke-width="2"/><path d="M 330.0 243.3734130859375 330.0 243.3734130859375" stroke="blue" stroke-width="2"/><path d="M 1610 298.0 330.0 298.0" stroke="blue" stroke-width="2"/><path d="M 330.0 243.3734130859375 330.0 298.0" stroke="blue" stroke-width="2"/><path d="M 1130.0 837.8624877929688 970.0 837.8624877929688" stroke="red" stroke-width="2"/><path d="M 1290.0 898.75 970.0 898.75" stroke="red" stroke-width="2"/><path d="M 970.0 837.8624877929688 970.0 898.75" stroke="red" stroke-width="2"/><path d="M 970.0 868.3062438964844 970.0 868.3062438964844" stroke="red" stroke-width="2"/><path d="M 1450.0 928.0 970.0 928.0" stroke="red" stroke-width="2"/><path d="M 970.0 868.3062438964844 970.0 928.0" stroke="red" stroke-width="2"/><path d="M 970.0 898.1531219482422 970.0 898.1531219482422" stroke="red" stroke-width="2"/><path d="M 1610 946.0 970.0 946.0" stroke="red" stroke-width="2"/><path d="M 970.0 898.1531219482422 970.0 946.0" stroke="red" stroke-width="2"/><path d="M 970.0 922.0765609741211 810.0 922.0765609741211" stroke="red" stroke-width="2"/><path d="M 1610 958.0 810.0 958.0" stroke="red" stroke-width="2"/><path d="M 810.0 922.0765609741211 810.0 958.0" stroke="red" stroke-width="2"/><path d="M 810.0 940.0382804870605 810.0 940.0382804870605" stroke="red" stroke-width="2"/><path d="M 1610 970.0 810.0 970.0" stroke="red" stroke-width="2"/><path d="M 810.0 940.0382804870605 810.0 970.0" stroke="red" stroke-width="2"/><path d="M 810.0 955.0191402435303 650.0 955.0191402435303" stroke="red" stroke-width="2"/><path d="M 1130.0 1010.5 650.0 1010.5" stroke="red" stroke-width="2"/><path d="M 650.0 955.0191402435303 650.0 1010.5" stroke="red" stroke-width="2"/><path d="M 650.0 982.7595701217651 650.0 982.7595701217651" stroke="red" stroke-width="2"/><path d="M 1610 1042.0 650.0 1042.0" stroke="red" stroke-width="2"/><path d="M 650.0 982.7595701217651 650.0 1042.0" stroke="red" stroke-width="2"/><path d="M 330.0 270.68670654296875 170.0 270.68670654296875" stroke="blue" stroke-width="2"/><path d="M 1290.0 356.5 170.0 356.5" stroke="blue" stroke-width="2"/><path d="M 170.0 270.68670654296875 170.0 356.5" stroke="blue" stroke-width="2"/><path d="M 170.0 313.5933532714844 170.0 313.5933532714844" stroke="blue" stroke-width="2"/><path d="M 1130.0 418.75 170.0 418.75" stroke="blue" stroke-width="2"/><path d="M 170.0 313.5933532714844 170.0 418.75" stroke="blue" stroke-width="2"/><path d="M 170.0 366.1716766357422 170.0 366.1716766357422" stroke="blue" stroke-width="2"/><path d="M 1130.0 470.5 170.0 470.5" stroke="blue" stroke-width="2"/><path d="M 170.0 366.1716766357422 170.0 470.5" stroke="blue" stroke-width="2"/><path d="M 170.0 418.3358383178711 170.0 418.3358383178711" stroke="blue" stroke-width="2"/><path d="M 1290.0 527.5 170.0 527.5" stroke="blue" stroke-width="2"/><path d="M 170.0 418.3358383178711 170.0 527.5" stroke="blue" stroke-width="2"/><path d="M 170.0 472.91791915893555 170.0 472.91791915893555" stroke="blue" stroke-width="2"/><path d="M 1450.0 556.0 170.0 556.0" stroke="blue" stroke-width="2"/><path d="M 170.0 472.91791915893555 170.0 556.0" stroke="blue" stroke-width="2"/><path d="M 170.0 514.4589595794678 170.0 514.4589595794678" stroke="blue" stroke-width="2"/><path d="M 1450.0 580.0 170.0 580.0" stroke="blue" stroke-width="2"/><path d="M 170.0 514.4589595794678 170.0 580.0" stroke="blue" stroke-width="2"/><path d="M 170.0 547.2294797897339 170.0 547.2294797897339" stroke="blue" stroke-width="2"/><path d="M 1610 598.0 170.0 598.0" stroke="blue" stroke-width="2"/><path d="M 170.0 547.2294797897339 170.0 598.0" stroke="blue" stroke-width="2"/><path d="M 170.0 572.614739894867 10.0 572.614739894867" stroke="black" stroke-width="2"/><path d="M 650.0 1012.3797850608826 10.0 1012.3797850608826" stroke="black" stroke-width="2"/><path d="M 10.0 572.614739894867 10.0 1012.3797850608826" stroke="black" stroke-width="2"/><path d="M 10.0 792.4972624778748 10.0 792.4972624778748" stroke="black" stroke-width="2"/><path d="M 970.0 1169.453125 10.0 1169.453125" stroke="black" stroke-width="2"/><path d="M 10.0 792.4972624778748 10.0 1169.453125" stroke="black" stroke-width="2"/><path d="M 10.0 980.9751937389374 10.0 980.9751937389374" stroke="black" stroke-width="2"/><path d="M 1610 1198.0 10.0 1198.0" stroke="black" stroke-width="2"/><path d="M 10.0 980.9751937389374 10.0 1198.0" stroke="black" stroke-width="2"/></svg>